<?xml version="1.0" encoding="UTF-8" standalone="no"?>
<svg id="svg6204" xmlns:rdf="http://www.w3.org/1999/02/22-rdf-syntax-ns#" xmlns="http://www.w3.org/2000/svg" height="71.336mm" viewBox="0 0 252.76532 252.76532" width="71.336mm" version="1.1" xmlns:cc="http://creativecommons.org/ns#" xmlns:dc="http://purl.org/dc/elements/1.1/">
 <defs id="defs6206">
  <clipPath id="clipPath11011" clipPathUnits="userSpaceOnUse">
   <path id="path11013" fill-opacity=".68203" fill="#b63b3b" transform="matrix(.81589 .47106 -.47106 .81589 122.43 646.24)" d="m282.33 249.29c0 2.4949-60.212 106.78-62.372 108.03-2.1606 1.2474-122.58 1.2474-124.74 0-2.169-1.24-62.381-105.53-62.381-108.03 0-2.4949 60.212-106.78 62.372-108.03 2.1606-1.2474 122.58-1.2474 124.74 0 2.1606 1.2474 62.372 105.54 62.372 108.03z"/>
  </clipPath>
  <clipPath id="clipPath8982" clipPathUnits="userSpaceOnUse">
   <path id="path8984" fill-rule="evenodd" fill="#7a7a7a" d="m-170.23 358.94c-77.162 2.2067-106.09 16.956-124.01 42.305-20.708 29.294-36.365 94.449-42.426 132.33 59.599 8.0812 59.6 8.5879 59.6 8.5879v87.883s27.541 21.01 106.84 25.816v-296.92zm66.857 0.57031v296.45c87.156-4.6802 112.68-26.418 112.68-26.418l-2.0195-86.873 59.6-8.5859s-9.0911-57.579-33.84-112.13c-22.521-49.639-50.503-59.54-136.42-62.443z"/>
  </clipPath>
 </defs>
 <g id="layer1" transform="translate(-35.126 -51.694)">
  <g id="g11015" transform="translate(12.143 -145.18)">
   <path id="path4628-3" d="m257.52 385.69c-1.2488 2.163-105.65 62.437-108.15 62.44-2.4976-0.00002-106.9-60.276-108.15-62.439-1.2598-2.1607-1.26-122.72-0.0087-124.88 1.2488-2.163 105.65-62.437 108.15-62.44 2.4976 0.00002 106.9 60.276 108.15 62.439 1.2488 2.163 1.2472 122.72 0.00086 124.88z" fill-opacity="0" stroke="#fff" stroke-width="3"/>
   <g id="g10701" transform="translate(15.794 -600.61)" clip-path="url(#clipPath11011)">
    <circle id="path10699" cy="945.22" cx="135" r="150" fill="#fff"/>
    <g id="layer1-6" transform="matrix(.28211 0 0 .28211 33.489 826.22)">
     <g id="g15" fill-rule="evenodd">
      <path id="path6313-8" fill="#403023" d="m191.03 281.88s-13.957-58.588-7.6171-57.162c8.091 1.8188 10.977 18.235 9.5678 3.4348-0.82015-8.6116-9.5247-27.37-1.1452-53.984 7.6008-24.142-3.9776 6.2404-1.7322-17.402 1.663-17.51 0.92192-44.844 15.727-61.902 22.197-25.574-5.9547 21.947 9.5507 2.9181s28.099-29.977 23.165-49.711c-4.9335-19.734 10.977-2.2145 10.273 6.2429-0.70479 8.4575 4.2324 16.701 11.985-3.7377 7.7527-20.439 35.296-25.942 35.296-25.942s20.614-5.7202 7.9274 2.7373c-12.686 8.4575-4.1072 10.166 7.8742 5.2322 11.981-4.9335 20.168-32.829 22.283-16.619 2.1144 16.21-11.076 32.559 7.3184 18.733 11.611-8.7274 5.2328-13.589 5.2328-13.589s-28.598-27.48 3.1178-8.4508c32.708 19.625 5.998 21.036 15.865 20.331 9.867-0.70479 29.847-6.1544 15.046-16.021-14.801-9.8671-10.01-8.7885 6.4604-5.642 11.163 2.1325 5.3751 18.086 22.995 15.267 17.62-2.8192 6.9067-19.354 39.582-8.5356 14.643 4.848-20.496-0.43423-9.9806 10.298 2.4662 2.5171 22.91 32.05 41.23-3.8763 4.6373-9.0938 5.816 11.423-3.6986 20.585-7.1074 6.8442 12.736 34.516 19.784 22.535 7.0479-11.981 19.246-7.0296 13.163-3.061-13.831 9.0232-2.785 53.877 1.4096 47.221 11.159-17.706 11.981 8.9335 5.6383 44.173-6.3431 35.239 0.72251 47.038 2.6482 40.379 13.018-45.017 10.038 22.823 5.8093 38.328s11.277 50.745 11.277 50.745z"/>
      <path id="path4361" fill="#f1d0a9" d="m151.66 701.45s71.778 65.401 209.94 64.237c124.67-1.0506 205.73-61.692 205.73-61.692s-33.986-151.54-60.755-195.31c-26.768-43.768-268.77-19.176-268.77-19.176s-46.627 54.813-78.565 154.94c-4.5456 14.25-7.5759 57-7.5759 57z"/>
      <path id="path4361-5" fill="#202021" d="m217.84 739.04s48.797 29.126 143.87 27.962c85.791-1.0506 138.59-26.607 138.59-26.607s-20.414-186.62-38.833-230.39c-18.42-43.768-184.95-19.176-184.95-19.176s-32.085 54.813-54.062 154.94c-3.1279 14.25-4.6185 93.275-4.6185 93.275z"/>
     </g>
     <g id="layer1-5" transform="matrix(1.1157,0,0,1.1157,71.351,-323.94)" stroke="#fff">
      <g id="g5752" stroke="#fff">
       <path id="path4395" d="m513.81 545.63-104.9 181.7h-209.81l-104.9-181.7 104.9-181.69h209.81z" fill-opacity="0" transform="matrix(.20694 0 0 .21034 192.9 722.88)" stroke-dashoffset="30" onmouseover="" stroke-width="46.214"/>
       <path id="path4448" d="m234.32 825.37 21.12 11.478 21.35-11.019-21.12 11.249 0.22956 25.941" stroke-width="4.0174" fill="none"/>
       <path id="path4412" d="m513.81 545.63-104.9 181.7h-209.81l-104.9-181.7 104.9-181.69h209.81z" transform="matrix(.10181 -.05878 .059746 .10348 192.26 799.05)" stroke-width="54.234" fill="none"/>
      </g>
     </g>
     <g id="g25">
      <ellipse id="path4155-7-0-28-0" rx="25.449" ry="27.454" cy="274.26" cx="288.45" fill="#fff"/>
      <ellipse id="path4155-7-0-2-7-6-6" rx="12.153" ry="15.089" cy="274.37" cx="289.56" fill="#163b16"/>
      <path id="path4353" d="m299.35 448.83s0 27.086-0.35714 37.582 19.975 38.946 61.071 37.921c40.714-1.0157 60.802-25.768 61.786-37.921 0.7143-8.8224-0.35715-38.937-0.35715-38.937z" fill-rule="evenodd" fill="#e0b280"/>
     </g>
     <g id="g8722" transform="translate(492.38,109.64)" clip-path="url(#clipPath8982)">
      <rect id="rect8720" height="480" width="480" y="287.04" x="-368.18" fill="#671c1c"/>
      <g id="g8462" transform="translate(-1.2891e-5,-40)">
       <rect id="rect7189" height="30" width="30" y="537.04" x="-368.18" fill="#671c1c"/>
       <rect id="rect7952" height="30" width="30" y="537.04" x="-338.18" fill="#7a2727"/>
       <rect id="rect7954" height="30" width="30" y="507.04" x="-368.18" fill="#7a2727"/>
       <rect id="rect7956" height="30" width="30" y="507.04" x="-338.18" fill="#8f3232"/>
       <rect id="rect7958" height="30" width="30" y="477.04" x="-368.18" fill="#671c1c"/>
       <rect id="rect7960" height="30" width="30" y="477.04" x="-338.18" fill="#7a2727"/>
       <rect id="rect7962" height="30" width="30" y="447.04" x="-368.18" fill="#7a2727"/>
       <rect id="rect7964" height="30" width="30" y="447.04" x="-338.18" fill="#8f3232"/>
       <rect id="rect7966" height="30" width="30" y="537.04" x="-308.18" fill="#671c1c"/>
       <rect id="rect7968" height="30" width="30" y="537.04" x="-278.18" fill="#7a2727"/>
       <rect id="rect7970" height="30" width="30" y="507.04" x="-308.18" fill="#7a2727"/>
       <rect id="rect7972" height="30" width="30" y="507.04" x="-278.18" fill="#8f3232"/>
       <rect id="rect7974" height="30" width="30" y="477.04" x="-308.18" fill="#671c1c"/>
       <rect id="rect7976" height="30" width="30" y="477.04" x="-278.18" fill="#7a2727"/>
       <rect id="rect7978" height="30" width="30" y="447.04" x="-308.18" fill="#7a2727"/>
       <rect id="rect7980" height="30" width="30" y="447.04" x="-278.18" fill="#8f3232"/>
       <rect id="rect7982" height="30" width="30" y="537.04" x="-248.18" fill="#671c1c"/>
       <rect id="rect7984" height="30" width="30" y="537.04" x="-218.18" fill="#7a2727"/>
       <rect id="rect7986" height="30" width="30" y="507.04" x="-248.18" fill="#7a2727"/>
       <rect id="rect7988" height="30" width="30" y="507.04" x="-218.18" fill="#8f3232"/>
       <rect id="rect7990" height="30" width="30" y="477.04" x="-248.18" fill="#671c1c"/>
       <rect id="rect7992" height="30" width="30" y="477.04" x="-218.18" fill="#7a2727"/>
       <rect id="rect7994" height="30" width="30" y="447.04" x="-248.18" fill="#7a2727"/>
       <rect id="rect7996" height="30" width="30" y="447.04" x="-218.18" fill="#8f3232"/>
       <rect id="rect7998" height="30" width="30" y="537.04" x="-188.18" fill="#671c1c"/>
       <rect id="rect8000" height="30" width="30" y="537.04" x="-158.18" fill="#7a2727"/>
       <rect id="rect8002" height="30" width="30" y="507.04" x="-188.18" fill="#7a2727"/>
       <rect id="rect8004" height="30" width="30" y="507.04" x="-158.18" fill="#8f3232"/>
       <rect id="rect8006" height="30" width="30" y="477.04" x="-188.18" fill="#671c1c"/>
       <rect id="rect8008" height="30" width="30" y="477.04" x="-158.18" fill="#7a2727"/>
       <rect id="rect8010" height="30" width="30" y="447.04" x="-188.18" fill="#7a2727"/>
       <rect id="rect8012" height="30" width="30" y="447.04" x="-158.18" fill="#8f3232"/>
       <rect id="rect8014" height="30" width="30" y="417.04" x="-368.18" fill="#671c1c"/>
       <rect id="rect8016" height="30" width="30" y="417.04" x="-338.18" fill="#7a2727"/>
       <rect id="rect8018" height="30" width="30" y="387.04" x="-368.18" fill="#7a2727"/>
       <rect id="rect8020" height="30" width="30" y="387.04" x="-338.18" fill="#8f3232"/>
       <rect id="rect8022" height="30" width="30" y="357.04" x="-368.18" fill="#671c1c"/>
       <rect id="rect8024" height="30" width="30" y="357.04" x="-338.18" fill="#7a2727"/>
       <rect id="rect8026" height="30" width="30" y="327.04" x="-368.18" fill="#7a2727"/>
       <rect id="rect8028" height="30" width="30" y="327.04" x="-338.18" fill="#8f3232"/>
       <rect id="rect8030" height="30" width="30" y="417.04" x="-308.18" fill="#671c1c"/>
       <rect id="rect8032" height="30" width="30" y="417.04" x="-278.18" fill="#7a2727"/>
       <rect id="rect8034" height="30" width="30" y="387.04" x="-308.18" fill="#7a2727"/>
       <rect id="rect8036" height="30" width="30" y="387.04" x="-278.18" fill="#8f3232"/>
       <rect id="rect8038" height="30" width="30" y="357.04" x="-308.18" fill="#671c1c"/>
       <rect id="rect8040" height="30" width="30" y="357.04" x="-278.18" fill="#7a2727"/>
       <rect id="rect8042" height="30" width="30" y="327.04" x="-308.18" fill="#7a2727"/>
       <rect id="rect8044" height="30" width="30" y="327.04" x="-278.18" fill="#8f3232"/>
       <rect id="rect8046" height="30" width="30" y="417.04" x="-248.18" fill="#671c1c"/>
       <rect id="rect8048" height="30" width="30" y="417.04" x="-218.18" fill="#7a2727"/>
       <rect id="rect8050" height="30" width="30" y="387.04" x="-248.18" fill="#7a2727"/>
       <rect id="rect8052" height="30" width="30" y="387.04" x="-218.18" fill="#8f3232"/>
       <rect id="rect8054" height="30" width="30" y="357.04" x="-248.18" fill="#671c1c"/>
       <rect id="rect8056" height="30" width="30" y="357.04" x="-218.18" fill="#7a2727"/>
       <rect id="rect8058" height="30" width="30" y="327.04" x="-248.18" fill="#7a2727"/>
       <rect id="rect8060" height="30" width="30" y="327.04" x="-218.18" fill="#8f3232"/>
       <rect id="rect8062" height="30" width="30" y="417.04" x="-188.18" fill="#671c1c"/>
       <rect id="rect8064" height="30" width="30" y="417.04" x="-158.18" fill="#7a2727"/>
       <rect id="rect8066" height="30" width="30" y="387.04" x="-188.18" fill="#7a2727"/>
       <rect id="rect8068" height="30" width="30" y="387.04" x="-158.18" fill="#8f3232"/>
       <rect id="rect8070" height="30" width="30" y="357.04" x="-188.18" fill="#671c1c"/>
       <rect id="rect8072" height="30" width="30" y="357.04" x="-158.18" fill="#7a2727"/>
       <rect id="rect8074" height="30" width="30" y="327.04" x="-188.18" fill="#7a2727"/>
       <rect id="rect8076" height="30" width="30" y="327.04" x="-158.18" fill="#8f3232"/>
       <rect id="rect8078" height="30" width="30" y="537.04" x="-128.18" fill="#671c1c"/>
       <rect id="rect8080" height="30" width="30" y="537.04" x="-98.176" fill="#7a2727"/>
       <rect id="rect8082" height="30" width="30" y="507.04" x="-128.18" fill="#7a2727"/>
       <rect id="rect8084" height="30" width="30" y="507.04" x="-98.176" fill="#8f3232"/>
       <rect id="rect8086" height="30" width="30" y="477.04" x="-128.18" fill="#671c1c"/>
       <rect id="rect8088" height="30" width="30" y="477.04" x="-98.176" fill="#7a2727"/>
       <rect id="rect8090" height="30" width="30" y="447.04" x="-128.18" fill="#7a2727"/>
       <rect id="rect8092" height="30" width="30" y="447.04" x="-98.176" fill="#8f3232"/>
       <rect id="rect8094" height="30" width="30" y="537.04" x="-68.176" fill="#671c1c"/>
       <rect id="rect8096" height="30" width="30" y="537.04" x="-38.176" fill="#7a2727"/>
       <rect id="rect8098" height="30" width="30" y="507.04" x="-68.176" fill="#7a2727"/>
       <rect id="rect8100" height="30" width="30" y="507.04" x="-38.176" fill="#8f3232"/>
       <rect id="rect8102" height="30" width="30" y="477.04" x="-68.176" fill="#671c1c"/>
       <rect id="rect8104" height="30" width="30" y="477.04" x="-38.176" fill="#7a2727"/>
       <rect id="rect8106" height="30" width="30" y="447.04" x="-68.176" fill="#7a2727"/>
       <rect id="rect8108" height="30" width="30" y="447.04" x="-38.176" fill="#8f3232"/>
       <rect id="rect8110" height="30" width="30" y="537.04" x="-8.1755" fill="#671c1c"/>
       <rect id="rect8112" height="30" width="30" y="537.04" x="21.824" fill="#7a2727"/>
       <rect id="rect8114" height="30" width="30" y="507.04" x="-8.1755" fill="#7a2727"/>
       <rect id="rect8116" height="30" width="30" y="507.04" x="21.824" fill="#8f3232"/>
       <rect id="rect8118" height="30" width="30" y="477.04" x="-8.1755" fill="#671c1c"/>
       <rect id="rect8120" height="30" width="30" y="477.04" x="21.824" fill="#7a2727"/>
       <rect id="rect8122" height="30" width="30" y="447.04" x="-8.1755" fill="#7a2727"/>
       <rect id="rect8124" height="30" width="30" y="447.04" x="21.824" fill="#8f3232"/>
       <rect id="rect8126" height="30" width="30" y="537.04" x="51.824" fill="#671c1c"/>
       <rect id="rect8128" height="30" width="30" y="537.04" x="81.824" fill="#7a2727"/>
       <rect id="rect8130" height="30" width="30" y="507.04" x="51.824" fill="#7a2727"/>
       <rect id="rect8132" height="30" width="30" y="507.04" x="81.824" fill="#8f3232"/>
       <rect id="rect8134" height="30" width="30" y="477.04" x="51.824" fill="#671c1c"/>
       <rect id="rect8136" height="30" width="30" y="477.04" x="81.824" fill="#7a2727"/>
       <rect id="rect8138" height="30" width="30" y="447.04" x="51.824" fill="#7a2727"/>
       <rect id="rect8140" height="30" width="30" y="447.04" x="81.824" fill="#8f3232"/>
       <rect id="rect8142" height="30" width="30" y="417.04" x="-128.18" fill="#671c1c"/>
       <rect id="rect8144" height="30" width="30" y="417.04" x="-98.176" fill="#7a2727"/>
       <rect id="rect8146" height="30" width="30" y="387.04" x="-128.18" fill="#7a2727"/>
       <rect id="rect8148" height="30" width="30" y="387.04" x="-98.176" fill="#8f3232"/>
       <rect id="rect8150" height="30" width="30" y="357.04" x="-128.18" fill="#671c1c"/>
       <rect id="rect8152" height="30" width="30" y="357.04" x="-98.176" fill="#7a2727"/>
       <rect id="rect8154" height="30" width="30" y="327.04" x="-128.18" fill="#7a2727"/>
       <rect id="rect8156" height="30" width="30" y="327.04" x="-98.176" fill="#8f3232"/>
       <rect id="rect8158" height="30" width="30" y="417.04" x="-68.176" fill="#671c1c"/>
       <rect id="rect8160" height="30" width="30" y="417.04" x="-38.176" fill="#7a2727"/>
       <rect id="rect8162" height="30" width="30" y="387.04" x="-68.176" fill="#7a2727"/>
       <rect id="rect8164" height="30" width="30" y="387.04" x="-38.176" fill="#8f3232"/>
       <rect id="rect8166" height="30" width="30" y="357.04" x="-68.176" fill="#671c1c"/>
       <rect id="rect8168" height="30" width="30" y="357.04" x="-38.176" fill="#7a2727"/>
       <rect id="rect8170" height="30" width="30" y="327.04" x="-68.176" fill="#7a2727"/>
       <rect id="rect8172" height="30" width="30" y="327.04" x="-38.176" fill="#8f3232"/>
       <rect id="rect8174" height="30" width="30" y="417.04" x="-8.1755" fill="#671c1c"/>
       <rect id="rect8176" height="30" width="30" y="417.04" x="21.824" fill="#7a2727"/>
       <rect id="rect8178" height="30" width="30" y="387.04" x="-8.1755" fill="#7a2727"/>
       <rect id="rect8180" height="30" width="30" y="387.04" x="21.824" fill="#8f3232"/>
       <rect id="rect8182" height="30" width="30" y="357.04" x="-8.1755" fill="#671c1c"/>
       <rect id="rect8184" height="30" width="30" y="357.04" x="21.824" fill="#7a2727"/>
       <rect id="rect8186" height="30" width="30" y="327.04" x="-8.1755" fill="#7a2727"/>
       <rect id="rect8188" height="30" width="30" y="327.04" x="21.824" fill="#8f3232"/>
       <rect id="rect8190" height="30" width="30" y="417.04" x="51.824" fill="#671c1c"/>
       <rect id="rect8192" height="30" width="30" y="417.04" x="81.824" fill="#7a2727"/>
       <rect id="rect8194" height="30" width="30" y="387.04" x="51.824" fill="#7a2727"/>
       <rect id="rect8196" height="30" width="30" y="387.04" x="81.824" fill="#8f3232"/>
       <rect id="rect8198" height="30" width="30" y="357.04" x="51.824" fill="#671c1c"/>
       <rect id="rect8200" height="30" width="30" y="357.04" x="81.824" fill="#7a2727"/>
       <rect id="rect8202" height="30" width="30" y="327.04" x="51.824" fill="#7a2727"/>
       <rect id="rect8204" height="30" width="30" y="327.04" x="81.824" fill="#8f3232"/>
       <rect id="rect8206" height="30" width="30" y="777.04" x="-368.18" fill="#671c1c"/>
       <rect id="rect8208" height="30" width="30" y="777.04" x="-338.18" fill="#7a2727"/>
       <rect id="rect8210" height="30" width="30" y="747.04" x="-368.18" fill="#7a2727"/>
       <rect id="rect8212" height="30" width="30" y="747.04" x="-338.18" fill="#8f3232"/>
       <rect id="rect8214" height="30" width="30" y="717.04" x="-368.18" fill="#671c1c"/>
       <rect id="rect8216" height="30" width="30" y="717.04" x="-338.18" fill="#7a2727"/>
       <rect id="rect8218" height="30" width="30" y="687.04" x="-368.18" fill="#7a2727"/>
       <rect id="rect8220" height="30" width="30" y="687.04" x="-338.18" fill="#8f3232"/>
       <rect id="rect8222" height="30" width="30" y="777.04" x="-308.18" fill="#671c1c"/>
       <rect id="rect8224" height="30" width="30" y="777.04" x="-278.18" fill="#7a2727"/>
       <rect id="rect8226" height="30" width="30" y="747.04" x="-308.18" fill="#7a2727"/>
       <rect id="rect8228" height="30" width="30" y="747.04" x="-278.18" fill="#8f3232"/>
       <rect id="rect8230" height="30" width="30" y="717.04" x="-308.18" fill="#671c1c"/>
       <rect id="rect8232" height="30" width="30" y="717.04" x="-278.18" fill="#7a2727"/>
       <rect id="rect8234" height="30" width="30" y="687.04" x="-308.18" fill="#7a2727"/>
       <rect id="rect8236" height="30" width="30" y="687.04" x="-278.18" fill="#8f3232"/>
       <rect id="rect8238" height="30" width="30" y="777.04" x="-248.18" fill="#671c1c"/>
       <rect id="rect8240" height="30" width="30" y="777.04" x="-218.18" fill="#7a2727"/>
       <rect id="rect8242" height="30" width="30" y="747.04" x="-248.18" fill="#7a2727"/>
       <rect id="rect8244" height="30" width="30" y="747.04" x="-218.18" fill="#8f3232"/>
       <rect id="rect8246" height="30" width="30" y="717.04" x="-248.18" fill="#671c1c"/>
       <rect id="rect8248" height="30" width="30" y="717.04" x="-218.18" fill="#7a2727"/>
       <rect id="rect8250" height="30" width="30" y="687.04" x="-248.18" fill="#7a2727"/>
       <rect id="rect8252" height="30" width="30" y="687.04" x="-218.18" fill="#8f3232"/>
       <rect id="rect8254" height="30" width="30" y="777.04" x="-188.18" fill="#671c1c"/>
       <rect id="rect8256" height="30" width="30" y="777.04" x="-158.18" fill="#7a2727"/>
       <rect id="rect8258" height="30" width="30" y="747.04" x="-188.18" fill="#7a2727"/>
       <rect id="rect8260" height="30" width="30" y="747.04" x="-158.18" fill="#8f3232"/>
       <rect id="rect8262" height="30" width="30" y="717.04" x="-188.18" fill="#671c1c"/>
       <rect id="rect8264" height="30" width="30" y="717.04" x="-158.18" fill="#7a2727"/>
       <rect id="rect8266" height="30" width="30" y="687.04" x="-188.18" fill="#7a2727"/>
       <rect id="rect8268" height="30" width="30" y="687.04" x="-158.18" fill="#8f3232"/>
       <rect id="rect8270" height="30" width="30" y="657.04" x="-368.18" fill="#671c1c"/>
       <rect id="rect8272" height="30" width="30" y="657.04" x="-338.18" fill="#7a2727"/>
       <rect id="rect8274" height="30" width="30" y="627.04" x="-368.18" fill="#7a2727"/>
       <rect id="rect8276" height="30" width="30" y="627.04" x="-338.18" fill="#8f3232"/>
       <rect id="rect8278" height="30" width="30" y="597.04" x="-368.18" fill="#671c1c"/>
       <rect id="rect8280" height="30" width="30" y="597.04" x="-338.18" fill="#7a2727"/>
       <rect id="rect8282" height="30" width="30" y="567.04" x="-368.18" fill="#7a2727"/>
       <rect id="rect8284" height="30" width="30" y="567.04" x="-338.18" fill="#8f3232"/>
       <rect id="rect8286" height="30" width="30" y="657.04" x="-308.18" fill="#671c1c"/>
       <rect id="rect8288" height="30" width="30" y="657.04" x="-278.18" fill="#7a2727"/>
       <rect id="rect8290" height="30" width="30" y="627.04" x="-308.18" fill="#7a2727"/>
       <rect id="rect8292" height="30" width="30" y="627.04" x="-278.18" fill="#8f3232"/>
       <rect id="rect8294" height="30" width="30" y="597.04" x="-308.18" fill="#671c1c"/>
       <rect id="rect8296" height="30" width="30" y="597.04" x="-278.18" fill="#7a2727"/>
       <rect id="rect8298" height="30" width="30" y="567.04" x="-308.18" fill="#7a2727"/>
       <rect id="rect8300" height="30" width="30" y="567.04" x="-278.18" fill="#8f3232"/>
       <rect id="rect8302" height="30" width="30" y="657.04" x="-248.18" fill="#671c1c"/>
       <rect id="rect8304" height="30" width="30" y="657.04" x="-218.18" fill="#7a2727"/>
       <rect id="rect8306" height="30" width="30" y="627.04" x="-248.18" fill="#7a2727"/>
       <rect id="rect8308" height="30" width="30" y="627.04" x="-218.18" fill="#8f3232"/>
       <rect id="rect8310" height="30" width="30" y="597.04" x="-248.18" fill="#671c1c"/>
       <rect id="rect8312" height="30" width="30" y="597.04" x="-218.18" fill="#7a2727"/>
       <rect id="rect8314" height="30" width="30" y="567.04" x="-248.18" fill="#7a2727"/>
       <rect id="rect8316" height="30" width="30" y="567.04" x="-218.18" fill="#8f3232"/>
       <rect id="rect8318" height="30" width="30" y="657.04" x="-188.18" fill="#671c1c"/>
       <rect id="rect8320" height="30" width="30" y="657.04" x="-158.18" fill="#7a2727"/>
       <rect id="rect8322" height="30" width="30" y="627.04" x="-188.18" fill="#7a2727"/>
       <rect id="rect8324" height="30" width="30" y="627.04" x="-158.18" fill="#8f3232"/>
       <rect id="rect8326" height="30" width="30" y="597.04" x="-188.18" fill="#671c1c"/>
       <rect id="rect8328" height="30" width="30" y="597.04" x="-158.18" fill="#7a2727"/>
       <rect id="rect8330" height="30" width="30" y="567.04" x="-188.18" fill="#7a2727"/>
       <rect id="rect8332" height="30" width="30" y="567.04" x="-158.18" fill="#8f3232"/>
       <rect id="rect8334" height="30" width="30" y="777.04" x="-128.18" fill="#671c1c"/>
       <rect id="rect8336" height="30" width="30" y="777.04" x="-98.176" fill="#7a2727"/>
       <rect id="rect8338" height="30" width="30" y="747.04" x="-128.18" fill="#7a2727"/>
       <rect id="rect8340" height="30" width="30" y="747.04" x="-98.176" fill="#8f3232"/>
       <rect id="rect8342" height="30" width="30" y="717.04" x="-128.18" fill="#671c1c"/>
       <rect id="rect8344" height="30" width="30" y="717.04" x="-98.176" fill="#7a2727"/>
       <rect id="rect8346" height="30" width="30" y="687.04" x="-128.18" fill="#7a2727"/>
       <rect id="rect8348" height="30" width="30" y="687.04" x="-98.176" fill="#8f3232"/>
       <rect id="rect8350" height="30" width="30" y="777.04" x="-68.176" fill="#671c1c"/>
       <rect id="rect8352" height="30" width="30" y="777.04" x="-38.176" fill="#7a2727"/>
       <rect id="rect8354" height="30" width="30" y="747.04" x="-68.176" fill="#7a2727"/>
       <rect id="rect8356" height="30" width="30" y="747.04" x="-38.176" fill="#8f3232"/>
       <rect id="rect8358" height="30" width="30" y="717.04" x="-68.176" fill="#671c1c"/>
       <rect id="rect8360" height="30" width="30" y="717.04" x="-38.176" fill="#7a2727"/>
       <rect id="rect8362" height="30" width="30" y="687.04" x="-68.176" fill="#7a2727"/>
       <rect id="rect8364" height="30" width="30" y="687.04" x="-38.176" fill="#8f3232"/>
       <rect id="rect8366" height="30" width="30" y="777.04" x="-8.1755" fill="#671c1c"/>
       <rect id="rect8368" height="30" width="30" y="777.04" x="21.824" fill="#7a2727"/>
       <rect id="rect8370" height="30" width="30" y="747.04" x="-8.1755" fill="#7a2727"/>
       <rect id="rect8372" height="30" width="30" y="747.04" x="21.824" fill="#8f3232"/>
       <rect id="rect8374" height="30" width="30" y="717.04" x="-8.1755" fill="#671c1c"/>
       <rect id="rect8376" height="30" width="30" y="717.04" x="21.824" fill="#7a2727"/>
       <rect id="rect8378" height="30" width="30" y="687.04" x="-8.1755" fill="#7a2727"/>
       <rect id="rect8380" height="30" width="30" y="687.04" x="21.824" fill="#8f3232"/>
       <rect id="rect8382" height="30" width="30" y="777.04" x="51.824" fill="#671c1c"/>
       <rect id="rect8384" height="30" width="30" y="777.04" x="81.824" fill="#7a2727"/>
       <rect id="rect8386" height="30" width="30" y="747.04" x="51.824" fill="#7a2727"/>
       <rect id="rect8388" height="30" width="30" y="747.04" x="81.824" fill="#8f3232"/>
       <rect id="rect8390" height="30" width="30" y="717.04" x="51.824" fill="#671c1c"/>
       <rect id="rect8392" height="30" width="30" y="717.04" x="81.824" fill="#7a2727"/>
       <rect id="rect8394" height="30" width="30" y="687.04" x="51.824" fill="#7a2727"/>
       <rect id="rect8396" height="30" width="30" y="687.04" x="81.824" fill="#8f3232"/>
       <rect id="rect8398" height="30" width="30" y="657.04" x="-128.18" fill="#671c1c"/>
       <rect id="rect8400" height="30" width="30" y="657.04" x="-98.176" fill="#7a2727"/>
       <rect id="rect8402" height="30" width="30" y="627.04" x="-128.18" fill="#7a2727"/>
       <rect id="rect8404" height="30" width="30" y="627.04" x="-98.176" fill="#8f3232"/>
       <rect id="rect8406" height="30" width="30" y="597.04" x="-128.18" fill="#671c1c"/>
       <rect id="rect8408" height="30" width="30" y="597.04" x="-98.176" fill="#7a2727"/>
       <rect id="rect8410" height="30" width="30" y="567.04" x="-128.18" fill="#7a2727"/>
       <rect id="rect8412" height="30" width="30" y="567.04" x="-98.176" fill="#8f3232"/>
       <rect id="rect8414" height="30" width="30" y="657.04" x="-68.176" fill="#671c1c"/>
       <rect id="rect8416" height="30" width="30" y="657.04" x="-38.176" fill="#7a2727"/>
       <rect id="rect8418" height="30" width="30" y="627.04" x="-68.176" fill="#7a2727"/>
       <rect id="rect8420" height="30" width="30" y="627.04" x="-38.176" fill="#8f3232"/>
       <rect id="rect8422" height="30" width="30" y="597.04" x="-68.176" fill="#671c1c"/>
       <rect id="rect8424" height="30" width="30" y="597.04" x="-38.176" fill="#7a2727"/>
       <rect id="rect8426" height="30" width="30" y="567.04" x="-68.176" fill="#7a2727"/>
       <rect id="rect8428" height="30" width="30" y="567.04" x="-38.176" fill="#8f3232"/>
       <rect id="rect8430" height="30" width="30" y="657.04" x="-8.1755" fill="#671c1c"/>
       <rect id="rect8432" height="30" width="30" y="657.04" x="21.824" fill="#7a2727"/>
       <rect id="rect8434" height="30" width="30" y="627.04" x="-8.1755" fill="#7a2727"/>
       <rect id="rect8436" height="30" width="30" y="627.04" x="21.824" fill="#8f3232"/>
       <rect id="rect8438" height="30" width="30" y="597.04" x="-8.1755" fill="#671c1c"/>
       <rect id="rect8440" height="30" width="30" y="597.04" x="21.824" fill="#7a2727"/>
       <rect id="rect8442" height="30" width="30" y="567.04" x="-8.1755" fill="#7a2727"/>
       <rect id="rect8444" height="30" width="30" y="567.04" x="21.824" fill="#8f3232"/>
       <rect id="rect8446" height="30" width="30" y="657.04" x="51.824" fill="#671c1c"/>
       <rect id="rect8448" height="30" width="30" y="657.04" x="81.824" fill="#7a2727"/>
       <rect id="rect8450" height="30" width="30" y="627.04" x="51.824" fill="#7a2727"/>
       <rect id="rect8452" height="30" width="30" y="627.04" x="81.824" fill="#8f3232"/>
       <rect id="rect8454" height="30" width="30" y="597.04" x="51.824" fill="#671c1c"/>
       <rect id="rect8456" height="30" width="30" y="597.04" x="81.824" fill="#7a2727"/>
       <rect id="rect8458" height="30" width="30" y="567.04" x="51.824" fill="#7a2727"/>
       <rect id="rect8460" height="30" width="30" y="567.04" x="81.824" fill="#8f3232"/>
      </g>
     </g>
     <g id="g289" fill-rule="evenodd">
      <path id="path5757" fill="#4f1f1f" d="m275.44 482.63s22.095-27.888 23.008-19.747c0.91303 8.1412 1.8686 18.033 10.774 26.329 13.093 12.198 22.095 14.723 22.095 14.723s-12.782 19.054-17.895 20.613-6.7726-23.089-30.678-37.761c-3.1043-1.9054-6.3912-3.984-6.3912-3.984z"/>
      <path id="path5757-4" fill="#4f1f1f" d="m435.75 485.9s-21.631-28.157-22.525-19.937c-0.89384 8.2197-1.8293 18.207-10.547 26.583-12.818 12.315-21.631 14.865-21.631 14.865s12.514 19.238 17.519 20.812c5.0055 1.574 6.6303-23.311 30.033-38.125 3.039-1.9237 6.2569-4.0224 6.2569-4.0224z"/>
      <path id="path4149" fill="#ffdab0" d="m198.73 347.92c37.037 98.278 67.97 117.7 107.97 145.66 31.65 19.339 72.536 25.661 114.06-5.2341 40.277-29.969 49.494-42.678 67.255-69.581 17.36-27.881 26.651-72.525 26.651-72.525s12.878-12.42 20.662-11.825c11.624 0.88766 28.229-24.252 29.193-33.512 1.9861-19.08-30.389-46.71-46.32-26.748-9.1962 11.523-7.8147-6.6948-34.595-100.37-4.4805-15.672-19.48-43.656-33.118-47.029-32.419-8.0179-57.773-17.927-68.295-8.6308-22.356 19.751-28.637 12.455-42.731 7.1838-14.094-5.2715-34.533-5.2346-55.034 0.0369s-34.644 29.582-43.613 37.489c-8.9691 7.9073-10.98 27.203-10.98 27.203-1.7758 9.8618-1.2786 24.048-8.9664 31.955-7.6878 7.9073-12.03-2.5735-7.303 26.302 8.1375 49.706-23.063 21.086-23.063 21.086-11.545-6.4102-33.617 3.8693-31.136 31.684 2.8472 31.928 39.366 46.847 39.366 46.847z"/>
     </g>
     <g id="g294" fill="#6c4d34" fill-rule="evenodd">
      <path id="path4204" d="m321.47 498.38c14.484-27.502 30.698-46.523 38.048-46.753 7.3502-0.22919 17.295 15.126 24.645 25.439 7.3502 10.313 17.654 22.183 13.682 25.454-7.9038 6.5074-18.812 11.625-38.816 12.228-20.785 0.62586-39.721-11.097-37.559-16.368z"/>
      <path id="path4216" d="m291.57 400.68c62.062-13.258 65.188-6.6855 63.972-15.547-1.2162-8.862-2.5267-15.017-6.2396-13.483-3.7129 1.5346-59.944 22.497-57.732 29.03z"/>
      <path id="path4216-8" d="m432.62 400.1c-62.062-13.258-65.188-6.6855-63.972-15.547 1.2162-8.862 2.5267-15.017 6.2396-13.483 3.7129 1.5346 59.944 22.497 57.732 29.03z"/>
     </g>
     <path id="path4363" d="m328.43 418.76s44.698 10.856 82.788-14.918" stroke="#d9b490" stroke-linecap="round" stroke-width="5.842" fill="none"/>
     <path id="path4216-4" d="m469.65 237.35c-56.45-19.96-65.283-9.7446-61.762-17.344 1.7974-3.8793 6.1632-8.919 9.9206-8.4723 9.009 1.0709 52.869 16.063 51.842 25.816z" fill-rule="evenodd" fill="#6c4d34"/>
     <path id="path4216-4-6" d="m249.36 249.98c59.205-10.586 66.081 0.90258 63.972-7.1528-1.0767-4.1122-1.215-10.747-4.9978-10.912-9.07-0.39438-58.24 8.2875-58.974 18.065z" fill-rule="evenodd" fill="#6c4d34"/>
     <g id="g302" stroke-linecap="round" fill="none">
      <path id="path4431" stroke-width="3.1021" stroke="#d9b490" d="m190.31 282.5c-29.171-0.75079-17.122 30.782-6.3415 37.164"/>
      <path id="path4431-8" stroke-width="3.0132" stroke="#d9b490" d="m530.13 282.47c29.318-0.70483 17.208 28.898 6.3734 34.889"/>
      <path id="path4450" stroke-width="5.842" stroke="#9b9b9e" d="m532.26 327.09 0.76024 16.494"/>
      <path id="path4450-7" stroke-width="5.842" stroke="#9b9b9e" d="m542.61 325.19 2.7779 16.281"/>
      <path id="path4431-6" stroke-width="3.8947" stroke="#d9b490" d="m342.28 357.01c10.169 8.8364 27.456 7.84 34.183-0.36094"/>
     </g>
     <g fill-rule="evenodd">
      <g id="g309">
       <path id="path5757-4-6" fill="#4f1f1f" d="m563.36 657.62s-0.5193-42.34-7.2068-34.99c-6.6875 7.3504-14.67 16.386-28.892 18.45-20.91 3.035-31.083-0.61683-31.083-0.61683s-1.7943 27.354 1.8366 32.359c3.6308 5.0053 22.851-18 55.579-16.102 4.25 0.24647 8.7939 0.44756 8.7939 0.44756z"/>
       <path id="path5757-4-6-6" fill="#4f1f1f" d="m151.68 653.27s0.5193-42.34 7.2068-34.99c6.6875 7.3504 14.67 16.386 28.892 18.45 20.91 3.035 31.083-0.61683 31.083-0.61683s1.7943 27.354-1.8366 32.359c-3.6308 5.0053-22.851-18-55.579-16.102-4.25 0.24647-8.7939 0.44756-8.7939 0.44756z"/>
       <path id="path5833" fill="#715036" d="m315.33 245.91c-0.0394-0.55255-1.5281-9.3997-3.3713-12.871-1.8433-3.471 0.91983-1.5394 1.623-0.94316 0.70315 0.5962 3.7415 12.045 3.2866 12.765-0.45488 0.72003-1.5382 1.0487-1.5382 1.0487z"/>
       <path id="path5833-6" fill="#715036" d="m405.18 222.9c0.22785-0.50995 4.6868-8.409 7.6262-11.118 2.9394-2.7085-0.33817-1.7399-1.2083-1.3945-0.87016 0.3454-7.6912 10.223-7.5097 11.044 0.18147 0.82147 1.0919 1.468 1.0919 1.468z"/>
       <rect id="rect5871" transform="matrix(.99991 -.013665 0 1 0 0)" rx="26.031" ry="16.053" height="39.498" width="74.116" y="257.06" x="258.36" fill="#fff"/>
       <ellipse id="path5890" rx="18.161" ry="17.217" cy="272.45" cx="296.72" fill="#5a9143"/>
      </g>
      <ellipse id="path5890-9" fill-opacity=".29412" rx="11.477" ry="10.881" cy="266.13" cx="303.26" fill="#fff"/>
      <g id="g318">
       <ellipse id="path5890-9-3" cy="272.81" cx="297.06" rx="10.338" ry="9.801"/>
       <rect id="rect5871-0" transform="matrix(.99991 -.013665 0 1 0 0)" rx="26.031" ry="16.053" height="39.498" width="74.116" y="258.95" x="396.27" fill="#fff"/>
       <ellipse id="path5890-6" rx="18.161" ry="17.217" cy="272.62" cx="433.47" fill="#5a9143"/>
      </g>
      <ellipse id="path5890-9-6" fill-opacity=".29412" rx="11.477" ry="10.881" cy="266.3" cx="440.01" fill="#fff"/>
      <ellipse id="path5890-9-3-1" rx="10.338" ry="9.801" cy="272.97" cx="433.81"/>
     </g>
     <g id="g325" stroke-linecap="round" stroke="#d9b490" fill="none">
      <path id="path4431-6-6-7" stroke-width="1.9473" d="m428.96 161.76c-39.19 4.3329-107.49 4.0142-134.9 0.14188"/>
      <path id="path4431-6-6-7-7" stroke-width="1.7869" d="m418.38 175.89c-31.421 4.5505-86.184 4.2158-108.16 0.14901"/>
      <path id="path4431-6-7" stroke-width="2.5042" d="m347.81 437.54c7.3094-5.0825 19.735-4.5094 24.571 0.20761"/>
     </g>
     <circle id="path6292-2" cy="448.96" cx="359.7" r="5.3574" fill="#9b9b9e"/>
     <g id="g331" fill="#644932" fill-rule="evenodd">
      <path id="path5831-7-1" d="m343.31 106.59c-3.07-12-36.48-60.099-36.48-60.099l16.82 39.135s-4.9986 1.6882-17.089-15.634c-12.308-17.634 19.419 49.635-22.305 4.235-13.462-14.648 1.0049 0.31451-5.264 15.333-4.6585 11.161-33.408-11.895-26.164 1.5504 7.2439 13.445 23.316 27.666 23.316 27.666s-10.565-15.596 13.279-15.362c10.637 0.10442 14.621 1.4951 24.095-1.897 20.37-7.2935 29.792 5.0765 29.792 5.0765z"/>
      <path id="path6374-0" d="m385.3 84.404c10.616-54.496 31.938-41.801 43.313-40.673 4.7275 0.46877-8.063 4.4262-13.114 3.7754-7.5498-0.9727-13.659 3.6147-13.691 14.813-0.0411 14.452 7.9332 24.362 19.386 9.9019 12.192-15.392 18.881-28.497 23.418-27.965 8.8916 1.043 11.044 7.2638 8.097 5.9728-13.322-5.8358-16.245 8.6628-21.789 17.774-9.2564 15.214 11.788 19.556 10.899 12.698-0.41779-3.2239 1.7361-9.4754 0.001-16.599-0.53169-2.1832 4.5146 6.6185 4.0345 27.71-0.0381 1.6747 11.415 23.893 12.955-7.6753 0.38031-7.7945 4.6361 31.103 10.612 27.943 2.1885-1.1571 14.264-3.8332 13.921-13.14-0.42269-11.46 3.7532-15.176 8.4224-22.575 2.9136-4.6167-3.528 21.074-8.3406 35.329-0.70875 2.0993 13.627 7.0492 14.804 0.78391 3.9673-21.109-0.53118 28.933-0.97039 29.579-0.31606 0.46486-4.4331-17.696-10.242-21.679-4.8465-3.3227-11.249 7.6543-14.045 5.8966-3.0755-1.9338-17.826-7.5676-28.826-17.326-5.6226-4.9882-6.9517-14.643-12.096-18.007-17.606-11.511-29.945-9.8823-41.234-0.03191-26.456 23.085-5.5162-6.5071-5.5162-6.5071z"/>
      <path id="path6376-6" d="m203.76 178.67c-3.0544 29.049-4.7513 23.39-0.67876 33.953 4.0726 10.563 5.0907-1.8863 10.521-17.354 5.4301-15.468 6.1088-26.785 4.0726-32.444-2.0363-5.6589 2.715 10.186-7.4664 27.917s1.0181-30.181-3.0544-21.881c-4.0726 8.2996-3.3938 9.8087-3.3938 9.8087z"/>
      <path id="path5827-0-9" d="m372.32 95.773c-13.446-4.3825-15.46-2.8429-17.315-10.312-1.8559-7.4695-3.3565-35.111-5.7185-37.505-7.0878-7.1838-8.5831-5.0272-8.5831-5.0272s8.1618 1.1287 9.6579 23.598-13.83-30.092-11.31-17.326c3.1448 15.937 2.7794 16.854 5.5924 24.074 3.9519 10.144 8.396 16.952 8.396 16.952s4.6535 9.771 14.12 10.62c20.38 1.8279 0 0-5.8721-3.6616-2.7948-1.7427 11.033-1.4128 11.033-1.4128z"/>
      <path id="path5825-7-7" d="m257.85 125.75c-1.6951-1.1018-4.016 2.6478-11.993-3.188-11.035-8.0726-0.92344-23.187-0.46807-25.665 0.45537-2.4776-11.993 13.678-6.053 31.67 0.67598 2.0476-5.9616-2.5331-7.4711-10.806-1.5094-8.2729 4.8814-22.728 9.5323-28.384 4.6509-5.6554-17.288 15.937-14.194 39.758 0.10805 0.83183 3.1199 17.685-5.072 3.9501-3.0356-5.0898-4.4507-14.168-4.4507-14.168s-3.1308 19.214 4.8068 27.046c5.0125 4.9457 6.2446-4.7663 9.0176-7.4114 11.574-11.04 26.345-12.803 26.345-12.803z"/>
      <path id="path5825-9-7" d="m521.47 212.11c-1.0748-2.036-1.7844 1.4677-6.9369-8.8922-7.1276-14.331-3.8597-28.135-3.973-30.906-0.1133-2.7716-4.4919 11.288 1.3229 35.331 0.66175 2.7361-3.5858-5.555-5.5999-16.093s-0.6593-25.128 1.0318-29.926c1.6912-4.7975-7.0232 11.749-1.8997 41.562 0.17892 1.041 4.248 22.482-2.1657 2.5789-2.3767-7.3752-4.4566-18.836-4.4566-18.836s1.095 21.665 6.5156 34.396c3.4231 8.0398 2.6804-3.0591 3.7941-5.0499 4.6482-8.3089 12.367-4.1646 12.367-4.1646z"/>
     </g>
    </g>
   </g>
  </g>
 </g>
</svg>
