<?xml version="1.0" encoding="UTF-8" standalone="no"?>
<svg
   xmlns:dc="http://purl.org/dc/elements/1.1/"
   xmlns:cc="http://creativecommons.org/ns#"
   xmlns:rdf="http://www.w3.org/1999/02/22-rdf-syntax-ns#"
   xmlns:svg="http://www.w3.org/2000/svg"
   xmlns="http://www.w3.org/2000/svg"
   xmlns:sodipodi="http://sodipodi.sourceforge.net/DTD/sodipodi-0.dtd"
   xmlns:inkscape="http://www.inkscape.org/namespaces/inkscape"
   id="svg5898"
   height="13.223494mm"
   width="11.658139mm"
   version="1.1"
   viewBox="0 0 41.308204 46.854838"
   inkscape:version="0.91 r13725"
   sodipodi:docname="github.svg">
  <metadata
     id="metadata4148">
    <rdf:RDF>
      <cc:Work
         rdf:about="">
        <dc:format>image/svg+xml</dc:format>
        <dc:type
           rdf:resource="http://purl.org/dc/dcmitype/StillImage" />
        <dc:title />
      </cc:Work>
    </rdf:RDF>
  </metadata>
  <sodipodi:namedview
     pagecolor="#ffff61"
     bordercolor="#666666"
     borderopacity="1"
     objecttolerance="10"
     gridtolerance="10"
     guidetolerance="10"
     inkscape:pageopacity="1"
     inkscape:pageshadow="2"
     inkscape:window-width="1920"
     inkscape:window-height="1016"
     id="namedview4146"
     showgrid="false"
     fit-margin-top="0"
     fit-margin-left="0"
     fit-margin-right="0"
     fit-margin-bottom="0"
     inkscape:zoom="7.0571793"
     inkscape:cx="5.7363669"
     inkscape:cy="3.3729794"
     inkscape:window-x="0"
     inkscape:window-y="27"
     inkscape:window-maximized="1"
     inkscape:current-layer="svg5898" />
  <defs
     id="defs5900">
    <clipPath
       id="clipPath3967"
       clipPathUnits="userSpaceOnUse">
      <path
         id="path3969"
         d="M 0,252 252,252 252,0 0,0 0,252 Z"
         inkscape:connector-curvature="0" />
    </clipPath>
  </defs>
  <g
     id="layer1"
     transform="matrix(1,0,0,1.0002327,-385.04515,-580.50352)">
    <g
       id="layer1-58"
       transform="matrix(0.92251798,0,0,0.92251798,1383.569,474.64674)"
       style="fill:#ffffff">
      <g
         id="g3961"
         transform="matrix(0.84003,0,0,-0.84003,106.41,-31.139)">
        <g
           id="g3963"
           transform="matrix(1.1224,0,0,1.1224,-116.41,-82.576)"
           style="fill:#ffffff">
          <g
             id="g3965"
             clip-path="url(#clipPath3967)"
             style="fill:#ffffff" />
        </g>
      </g>
      <path
         id="path18"
         d="m -1060,125.36 c -8.2838,0 -15.001,6.716 -15.001,15.001 0,6.6278 4.2982,12.251 10.259,14.234 0.7495,0.1389 1.0248,-0.32541 1.0248,-0.72163 0,-0.35771 -0.015,-1.5394 -0.021,-2.7929 -4.1732,0.90745 -5.0538,-1.7699 -5.0538,-1.7699 -0.6823,-1.7339 -1.6656,-2.1949 -1.6656,-2.1949 -1.361,-0.93103 0.102,-0.91191 0.102,-0.91191 1.5063,0.10561 2.2996,1.5461 2.2996,1.5461 1.3379,2.2931 3.5093,1.6301 4.3652,1.2468 0.1351,-0.96955 0.5234,-1.6315 0.9524,-2.0059 -3.3319,-0.37932 -6.8345,-1.6656 -6.8345,-7.4135 0,-1.6378 0.5861,-2.9759 1.5457,-4.0265 -0.1558,-0.37808 -0.6692,-1.9036 0.1455,-3.9698 0,0 1.2598,-0.40317 4.1264,1.5376 1.1966,-0.33237 2.4798,-0.49905 3.7547,-0.50477 1.2748,0.006 2.5591,0.1724 3.7579,0.50477 2.8631,-1.9408 4.1211,-1.5376 4.1211,-1.5376 0.8165,2.0662 0.3028,3.5917 0.147,3.9698 0.9618,1.0505 1.5438,2.3887 1.5438,4.0265 0,5.7616 -3.5092,7.0302 -6.8496,7.4016 0.5381,0.46552 1.0175,1.3784 1.0175,2.778 0,2.0071 -0.018,3.6225 -0.018,4.1166 0,0.3992 0.2701,0.86694 1.0304,0.71965 5.9571,-1.9858 10.25,-7.6068 10.25,-14.232 0,-8.2849 -6.7163,-15.001 -15.001,-15.001"
         inkscape:connector-curvature="0"
         style="fill-rule:evenodd" />
    </g>
  </g>
  <path
     sodipodi:type="star"
     style="opacity:1;fill:none;fill-opacity:1;stroke:#ffffff;stroke-width:0.95301503;stroke-miterlimit:4;stroke-dasharray:none;stroke-opacity:1"
     id="path5257-4-4-9-30-2-2"
     sodipodi:sides="6"
     sodipodi:cx="330.00266"
     sodipodi:cy="79.179924"
     sodipodi:r1="6.9657297"
     sodipodi:r2="6.0324988"
     sodipodi:arg1="0"
     sodipodi:arg2="0.52359878"
     inkscape:flatsided="true"
     inkscape:rounded="0.02"
     inkscape:randomized="0"
     d="m 336.96838,79.179924 c 0,0.139315 -3.36221,5.962842 -3.48286,6.032499 -0.12065,0.06966 -6.84508,0.06966 -6.96573,0 -0.12065,-0.06966 -3.48286,-5.893184 -3.48286,-6.032499 0,-0.139315 3.36221,-5.962842 3.48286,-6.032499 0.12065,-0.06966 6.84508,-0.06966 6.96573,0 0.12065,0.06966 3.48286,5.893184 3.48286,6.032499 z"
     transform="matrix(2.7261614,1.5739501,-1.5739501,2.7261614,-754.36114,-711.83755)" />
</svg>
