<?xml version="1.0" encoding="UTF-8" standalone="no"?>
<!-- Created with Inkscape (http://www.inkscape.org/) -->

<svg
   xmlns:dc="http://purl.org/dc/elements/1.1/"
   xmlns:cc="http://creativecommons.org/ns#"
   xmlns:rdf="http://www.w3.org/1999/02/22-rdf-syntax-ns#"
   xmlns:svg="http://www.w3.org/2000/svg"
   xmlns="http://www.w3.org/2000/svg"
   xmlns:sodipodi="http://sodipodi.sourceforge.net/DTD/sodipodi-0.dtd"
   xmlns:inkscape="http://www.inkscape.org/namespaces/inkscape"
   width="11.658139mm"
   height="13.223494mm"
   viewBox="0 0 41.308367 46.854898"
   id="svg7054"
   version="1.1"
   inkscape:version="0.91 r13725"
   sodipodi:docname="linkedin.svg">
  <defs
     id="defs7056" />
  <sodipodi:namedview
     id="base"
     pagecolor="#ffff5f"
     bordercolor="#666666"
     borderopacity="1.0"
     inkscape:pageopacity="0"
     inkscape:pageshadow="2"
     inkscape:zoom="5.6"
     inkscape:cx="10.917147"
     inkscape:cy="1.4711543"
     inkscape:document-units="px"
     inkscape:current-layer="g7616"
     showgrid="false"
     fit-margin-top="0"
     fit-margin-left="0"
     fit-margin-right="0"
     fit-margin-bottom="0"
     inkscape:window-width="960"
     inkscape:window-height="1016"
     inkscape:window-x="0"
     inkscape:window-y="27"
     inkscape:window-maximized="0" />
  <metadata
     id="metadata7059">
    <rdf:RDF>
      <cc:Work
         rdf:about="">
        <dc:format>image/svg+xml</dc:format>
        <dc:type
           rdf:resource="http://purl.org/dc/dcmitype/StillImage" />
        <dc:title></dc:title>
      </cc:Work>
    </rdf:RDF>
  </metadata>
  <g
     inkscape:label="Calque 1"
     inkscape:groupmode="layer"
     id="layer1"
     transform="translate(-351.39306,-502.75365)">
    <g
       id="g7616"
       transform="translate(-858.85714,-126.49494)">
      <path
         style="fill:#ffffff;fill-opacity:1"
         d="m 1222.6545,641.67607 c -1.5237,0 -2.7501,1.22649 -2.7501,2.74998 l 0,16.49997 c 0,1.5235 1.2264,2.74999 2.7501,2.74999 l 16.4998,0 c 1.5237,0 2.7501,-1.22649 2.7501,-2.74999 l 0,-16.49997 c 0,-1.52349 -1.2264,-2.74998 -2.7501,-2.74998 l -16.4998,0 z m 1.7408,2.33231 c 1.2599,0 2.0358,0.8289 2.0595,1.91529 0,1.06357 -0.7997,1.91529 -2.0845,1.91529 l -0.024,0 c -1.2371,0 -2.0357,-0.85172 -2.0357,-1.91529 0,-1.08639 0.8238,-1.91529 2.0846,-1.91529 z m 10.8609,5.08414 c 2.4241,0 4.2419,1.58385 4.2419,4.98856 l 0,6.35635 -3.6842,0 0,-5.93052 c 0,-1.48945 -0.5338,-2.50628 -1.8664,-2.50628 -1.0177,0 -1.6244,0.68551 -1.8903,1.34722 -0.097,0.2368 -0.1214,0.56796 -0.1214,0.89932 l 0,6.19026 -3.684,0 c 0,0 0.048,-10.04452 0,-11.08424 l 3.6841,0 0,1.56937 c 0.4903,-0.75504 1.3657,-1.83004 3.3203,-1.83004 z m -12.7285,0.26067 3.6851,0 0,11.08424 -3.6851,0 0,-11.08424 z"
         id="rect7604"
         inkscape:connector-curvature="0" />
      <g
         id="g7606"
         style="fill:#ffffff" />
      <path
         sodipodi:type="star"
         style="opacity:1;fill:none;fill-opacity:1;stroke:#ffffff;stroke-width:0.95301503;stroke-miterlimit:4;stroke-dasharray:none;stroke-opacity:1"
         id="path5257-4-4-9-30-2-2"
         sodipodi:sides="6"
         sodipodi:cx="330.00266"
         sodipodi:cy="79.179924"
         sodipodi:r1="6.9657297"
         sodipodi:r2="6.0324988"
         sodipodi:arg1="0"
         sodipodi:arg2="0.52359878"
         inkscape:flatsided="true"
         inkscape:rounded="0.02"
         inkscape:randomized="0"
         d="m 336.96838,79.179924 c 0,0.139315 -3.36221,5.962842 -3.48286,6.032499 -0.12065,0.06966 -6.84508,0.06966 -6.96573,0 -0.12065,-0.06966 -3.48286,-5.893184 -3.48286,-6.032499 0,-0.139315 3.36221,-5.962842 3.48286,-6.032499 0.12065,-0.06966 6.84508,-0.06966 6.96573,0 0.12065,0.06966 3.48286,5.893184 3.48286,6.032499 z"
         transform="matrix(2.7261648,1.5739521,-1.5739521,2.7261648,455.88817,-82.589851)" />
    </g>
  </g>
</svg>
