<svg
   xmlns="http://www.w3.org/2000/svg"
   height="20"
   width="20"
   viewBox="0 0 20 20">
  <style>
      #inner, #outer {
          transform-origin: 50% 50%;
          -webkit-transform-origin: 50% 50%;

          -webkit-animation: rotate 2.5s cubic-bezier(.49,.05,.32,1.04) infinite;
          animation: rotate 2.5s cubic-bezier(.49,.05,.32,1.04) infinite;
      }

      #outer {
          -webkit-animation: rotate 2.5s cubic-bezier(.49,.05,.32,1.04) infinite;
          -webkit-animation-delay: .25s;
          animation: rotate 2.5s cubic-bezier(.49,.05,.32,1.04) infinite;
          animation-delay: .25s;
      }

      @-webkit-keyframes rotate {
        50%, 100% {
          -webkit-transform: rotate(360deg);
        }
      }

      @keyframes rotate {
        50%, 100% {
          transform: rotate(360deg);
        }
      }

   </style>
  <path
     id="outer"
     d="m 17.915879,14.570225 c -0.09141,0.15833 -7.732997,4.57019 -7.9158912,4.57021 -0.1828106,0 -7.8244757,-4.41191 -7.9158216,-4.5702 -0.091403,-0.15832 -0.091439,-8.98216 -4.43e-5,-9.14046 0.091408,-0.15833 7.7329973,-4.57019 7.9158911,-4.57021 0.182811,0 7.824476,4.41191 7.915822,4.5702 0.0914,0.15832 0.09144,8.98216 4.4e-5,9.14046 z"
     style="fill:none;stroke:#ffffff;stroke-width:1.25055397;stroke-opacity:1"/>
  <path
     id="inner"
     d="m 15.613978,13.24123 c -0.06483,0.11228 -5.484281,3.2412 -5.6139907,3.24121 -0.1296502,0 -5.5491534,-3.12896 -5.6139363,-3.24121 -0.064823,-0.11229 -0.064844,-6.3702 -2.58e-5,-6.48247 0.064827,-0.11228 5.4842819,-3.24119 5.6139908,-3.2412 0.12965,0 5.549153,3.12895 5.613936,3.24121 0.06482,0.11228 0.06484,6.37019 2.6e-5,6.48246 z"
     style="fill:#ffffff;fill-opacity:1"/>
</svg>
