<?xml version="1.0" encoding="UTF-8" standalone="no"?>
<svg id="svg5898" xmlns:rdf="http://www.w3.org/1999/02/22-rdf-syntax-ns#" xmlns="http://www.w3.org/2000/svg" height="13.223mm" viewBox="0 0 41.308211 46.855187" width="11.658mm" version="1.1" xmlns:cc="http://creativecommons.org/ns#" xmlns:dc="http://purl.org/dc/elements/1.1/">
 <g id="layer1" transform="translate(-429.92 -585.02)">
  <path id="path5506" fill="#fff" d="m459.95 599.07h-18.76c-1.2898 0-2.3333 1.0553-2.3333 2.3451l-0.0117 14.07c0 1.2898 1.0553 2.345 2.3451 2.345h18.76c1.2898 0 2.3451-1.0553 2.3451-2.345v-14.07c0-1.2898-1.0553-2.3451-2.3451-2.3451zm0 4.6901-9.3802 5.8626-9.3802-5.8626v-2.345l9.3802 5.8626 9.3802-5.8626v2.345z"/>
 </g>
 <path id="path5257-4-4-9-30-2-2" fill="none" transform="matrix(2.7262 1.574 -1.574 2.7262 -754.37 -711.84)" stroke="#fff" stroke-width=".95302" d="m336.97 79.18c0 0.13932-3.3622 5.9628-3.4829 6.0325-0.12065 0.06966-6.8451 0.06966-6.9657 0-0.12065-0.06966-3.4829-5.8932-3.4829-6.0325 0-0.13932 3.3622-5.9628 3.4829-6.0325 0.12065-0.06966 6.8451-0.06966 6.9657 0 0.12065 0.06966 3.4829 5.8932 3.4829 6.0325z"/>
</svg>
