<?xml version="1.0" encoding="UTF-8" standalone="no"?>
<svg
   xmlns:dc="http://purl.org/dc/elements/1.1/"
   xmlns:cc="http://creativecommons.org/ns#"
   xmlns:rdf="http://www.w3.org/1999/02/22-rdf-syntax-ns#"
   xmlns:svg="http://www.w3.org/2000/svg"
   xmlns="http://www.w3.org/2000/svg"
   xmlns:sodipodi="http://sodipodi.sourceforge.net/DTD/sodipodi-0.dtd"
   xmlns:inkscape="http://www.inkscape.org/namespaces/inkscape"
   id="svg5898"
   height="13.223495mm"
   width="11.65814mm"
   version="1.1"
   viewBox="0 0 41.308211 46.855187"
   inkscape:version="0.91 r13725"
   sodipodi:docname="twitter.svg">
  <metadata
     id="metadata6487">
    <rdf:RDF>
      <cc:Work
         rdf:about="">
        <dc:format>image/svg+xml</dc:format>
        <dc:type
           rdf:resource="http://purl.org/dc/dcmitype/StillImage" />
        <dc:title />
      </cc:Work>
    </rdf:RDF>
  </metadata>
  <sodipodi:namedview
     pagecolor="#ffff7b"
     bordercolor="#666666"
     borderopacity="1"
     objecttolerance="10"
     gridtolerance="10"
     guidetolerance="10"
     inkscape:pageopacity="0"
     inkscape:pageshadow="2"
     inkscape:window-width="1920"
     inkscape:window-height="1016"
     id="namedview6485"
     showgrid="false"
     fit-margin-top="0"
     fit-margin-left="0"
     fit-margin-right="0"
     fit-margin-bottom="0"
     inkscape:zoom="4.8400172"
     inkscape:cx="23.449342"
     inkscape:cy="29.912945"
     inkscape:window-x="0"
     inkscape:window-y="27"
     inkscape:window-maximized="1"
     inkscape:current-layer="layer1" />
  <defs
     id="defs5900">
    <clipPath
       id="clipPath3967"
       clipPathUnits="userSpaceOnUse">
      <path
         id="path3969"
         d="M 0,252 252,252 252,0 0,0 0,252 Z"
         inkscape:connector-curvature="0" />
    </clipPath>
  </defs>
  <g
     id="layer1"
     transform="translate(-429.91584,-585.02252)">
    <g
       id="layer1-58"
       transform="matrix(0.89999812,0,0,0.89999812,1364.158,478.26517)"
       style="fill:#ffffff">
      <g
         id="g3961"
         transform="matrix(0.84003,0,0,-0.84003,106.41,-31.139)">
        <g
           id="g3963"
           transform="matrix(1.1224,0,0,1.1224,-116.41,-82.576)"
           style="fill:#ffffff">
          <g
             id="g3965"
             clip-path="url(#clipPath3967)"
             style="fill:#ffffff" />
        </g>
      </g>
      <g
         id="g10788"
         transform="matrix(0.058594,0,0,0.058594,-1030.1,129.65)">
        <g
           id="g10748"
           style="fill:#ffffff">
          <path
             id="path10750"
             d="m 512,97.211 c -18.84,8.354 -39.082,14.001 -60.33,16.54 21.686,-13 38.342,-33.585 46.186,-58.115 -20.299,12.039 -42.777,20.78 -66.705,25.49 -19.16,-20.415 -46.461,-33.17 -76.674,-33.17 -58.011,0 -105.04,47.029 -105.04,105.04 0,8.233 0.929,16.25 2.72,23.939 -87.3,-4.382 -164.7,-46.2 -216.51,-109.75 -9.042,15.514 -14.223,33.558 -14.223,52.809 0,36.444 18.544,68.596 46.73,87.433 -17.219,-0.546 -33.416,-5.271 -47.577,-13.139 -0.01,0.438 -0.01,0.878 -0.01,1.321 0,50.894 36.209,93.348 84.261,103 -8.813,2.399 -18.094,3.687 -27.674,3.687 -6.769,0 -13.349,-0.66 -19.764,-1.888 13.368,41.73 52.16,72.104 98.126,72.949 -35.95,28.176 -81.243,44.967 -130.46,44.967 -8.479,0 -16.84,-0.496 -25.058,-1.471 46.486,29.807 101.7,47.197 161.02,47.197 193.21,0 298.87,-160.06 298.87,-298.87 0,-4.554 -0.104,-9.084 -0.305,-13.59 20.526,-14.809 38.335,-33.309 52.417,-54.373 z"
             inkscape:connector-curvature="0"
             style="fill:#ffffff" />
        </g>
      </g>
    </g>
  </g>
  <path
     sodipodi:type="star"
     style="opacity:1;fill:none;fill-opacity:1;stroke:#ffffff;stroke-width:0.95301503;stroke-miterlimit:4;stroke-dasharray:none;stroke-opacity:1"
     id="path5257-4-4-9-30-2-2"
     sodipodi:sides="6"
     sodipodi:cx="330.00266"
     sodipodi:cy="79.179924"
     sodipodi:r1="6.9657297"
     sodipodi:r2="6.0324988"
     sodipodi:arg1="0"
     sodipodi:arg2="0.52359878"
     inkscape:flatsided="true"
     inkscape:rounded="0.02"
     inkscape:randomized="0"
     d="m 336.96838,79.179924 c 0,0.139315 -3.36221,5.962842 -3.48286,6.032499 -0.12065,0.06966 -6.84508,0.06966 -6.96573,0 -0.12065,-0.06966 -3.48286,-5.893184 -3.48286,-6.032499 0,-0.139315 3.36221,-5.962842 3.48286,-6.032499 0.12065,-0.06966 6.84508,-0.06966 6.96573,0 0.12065,0.06966 3.48286,5.893184 3.48286,6.032499 z"
     transform="matrix(2.7261814,1.5739617,-1.5739617,2.7261814,-754.36677,-711.84278)" />
</svg>
